<?xml version="1.0" encoding="utf-8"?>
<!DOCTYPE svg PUBLIC "-//W3C//DTD SVG 1.1//EN" "http://www.w3.org/Graphics/SVG/1.1/DTD/svg11.dtd">
<svg version="1.1"
	 xmlns="http://www.w3.org/2000/svg" xmlns:xlink="http://www.w3.org/1999/xlink"
	 x="0px" y="0px" width="555px" height="525px" viewBox="-22.54 -17.396 555 525" enable-background="new -22.54 -17.396 555 525"
	 xml:space="preserve">
<line fill="none" stroke="#282896" stroke-width="3" x1="251.961" y1="280.498" x2="8.546" y2="381.323"/>
<line fill="none" stroke="#962828" stroke-width="3" x1="251.961" y1="280.498" x2="495.373" y2="381.323"/>
<line fill="none" stroke="#286E28" stroke-width="3" x1="251.961" y1="280.498" x2="251.961" y2="14.629"/>
<polygon fill="#808080" points="115.825,336.887 129.01,346.267 86.694,348.953 129.01,316.583 "/>
<line fill="none" stroke="#808080" stroke-width="7" x1="115.825" y1="336.887" x2="251.961" y2="280.498"/>
<polygon fill="#808080" points="316.25,444.038 303.064,423.734 345.381,456.104 303.064,453.418 "/>
<polygon fill="#E12828" points="317.452,307.625 304.267,287.322 346.583,319.691 304.267,317.005 "/>
<polygon fill="#2828FF" points="186.47,307.625 199.655,317.005 157.339,319.691 199.655,287.322 "/>
<polygon fill="#808080" points="345.381,122.963 330.538,136.148 345.381,93.832 360.223,136.148 "/>
<polygon fill="#28C828" points="251.961,209.298 237.119,222.483 251.961,180.167 266.803,222.483 "/>
<line fill="none" stroke="#808080" stroke-width="7" x1="86.694" y1="348.953" x2="316.25" y2="444.038"/>
<polygon points="332.344,119.882 313.17,125.031 345.381,93.832 339.715,138.315 "/>
<line fill="none" stroke="#2828FF" stroke-width="7" x1="251.961" y1="280.498" x2="186.47" y2="307.625"/>
<line fill="none" stroke="#E12828" stroke-width="7" x1="251.961" y1="280.498" x2="317.452" y2="307.625"/>
<line fill="none" stroke="#28C828" stroke-width="7" x1="251.961" y1="280.498" x2="251.961" y2="209.298"/>
<line fill="none" stroke="#000000" stroke-width="7" x1="251.961" y1="280.498" x2="332.344" y2="119.882"/>
<line fill="none" stroke="#808080" stroke-width="7" x1="345.381" y1="456.104" x2="345.381" y2="122.963"/>
<g>
	<path fill="#282896" d="M6.987,352.53c-0.146-0.771-0.298-1.514-0.454-2.227s-0.317-1.377-0.483-1.992s-0.303-1.018-0.41-1.209
		c-0.107-0.189-0.222-0.322-0.344-0.395c-0.122-0.074-0.276-0.11-0.461-0.11c-0.205,0-0.391,0.047-0.557,0.14
		s-0.347,0.254-0.542,0.482c-0.195,0.23-0.454,0.589-0.776,1.077l-0.952-0.63c0.615-0.928,1.206-1.621,1.772-2.08
		s1.235-0.688,2.007-0.688c0.303,0,0.569,0.034,0.798,0.103s0.432,0.174,0.608,0.314c0.176,0.143,0.332,0.325,0.469,0.55
		s0.269,0.53,0.396,0.915c0.127,0.387,0.247,0.865,0.359,1.436c0.112,0.572,0.212,1.165,0.3,1.78h0.146
		c0.938-1.318,1.648-2.282,2.131-2.894c0.483-0.609,0.891-1.063,1.223-1.361s0.652-0.508,0.959-0.631
		c0.308-0.121,0.715-0.183,1.223-0.183c0.459,0,0.835,0.059,1.128,0.176l-0.586,2.651h-1.025c-0.059-0.41-0.229-0.615-0.513-0.615
		c-0.088,0-0.181,0.015-0.278,0.044s-0.217,0.093-0.359,0.19s-0.349,0.288-0.623,0.571s-0.581,0.63-0.923,1.04
		s-0.693,0.84-1.055,1.289L9.17,351.52c0.176,0.938,0.342,1.748,0.498,2.432s0.295,1.253,0.417,1.706
		c0.122,0.455,0.229,0.813,0.322,1.077s0.193,0.462,0.3,0.593c0.107,0.133,0.217,0.226,0.33,0.279s0.242,0.08,0.388,0.08
		c0.264,0,0.52-0.103,0.769-0.308s0.608-0.669,1.077-1.392l0.952,0.63c-0.684,1.016-1.301,1.731-1.853,2.146
		c-0.552,0.415-1.208,0.623-1.97,0.623c-0.42,0-0.776-0.076-1.069-0.227c-0.293-0.151-0.547-0.394-0.762-0.726
		s-0.405-0.85-0.571-1.553c-0.303-1.25-0.488-2.207-0.557-2.871H7.295c-1.035,1.455-1.804,2.5-2.307,3.135s-0.918,1.104-1.245,1.406
		s-0.645,0.516-0.952,0.638c-0.308,0.121-0.715,0.183-1.223,0.183c-0.459,0-0.835-0.059-1.128-0.176l0.586-2.651h1.025
		c0.059,0.41,0.229,0.615,0.513,0.615c0.137,0,0.281-0.037,0.432-0.109c0.151-0.074,0.369-0.25,0.652-0.527
		c0.283-0.279,0.674-0.716,1.172-1.312S6.04,353.722,6.987,352.53z"/>
</g>
<g>
	<path fill="#282896" d="M180.767,286.384c-0.098,0.41-0.164,0.728-0.198,0.952s-0.051,0.479-0.051,0.762
		c0,0.381,0.063,0.645,0.19,0.791s0.308,0.22,0.542,0.22c0.283,0,0.601-0.134,0.952-0.403c0.352-0.268,0.767-0.676,1.245-1.223
		l1.055,1.055c-0.957,0.977-1.814,1.67-2.571,2.08s-1.589,0.615-2.498,0.615c-1.035,0-1.792-0.254-2.271-0.762
		s-0.718-1.274-0.718-2.3c0-0.654,0.107-1.421,0.322-2.3l1.23-5.098c0.225-0.928,0.337-1.66,0.337-2.197
		c0-0.381-0.09-0.652-0.271-0.813c-0.181-0.162-0.559-0.271-1.135-0.33l0.22-0.967l4.292-0.161h1.67L180.767,286.384z
		 M184.121,270.622l-0.762,3.589h-3.794l0.806-3.589H184.121z"/>
</g>
<g>
	<path fill="#286E28" d="M224.225,204.855h0.293c0.352,0,0.684-0.063,0.996-0.19c0.381-0.156,0.85-0.435,1.406-0.835
		c0.752-0.557,1.284-0.991,1.597-1.304s0.53-0.608,0.652-0.886c0.122-0.279,0.183-0.564,0.183-0.857
		c0-0.225-0.061-0.415-0.183-0.571s-0.339-0.249-0.652-0.278l0.234-0.967h5.215l0.366,0.952c-0.605,0.664-1.421,1.387-2.446,2.168
		l-3.296,2.476l1.509,5.347c0.176,0.635,0.339,1.064,0.491,1.289s0.364,0.337,0.637,0.337c0.254,0,0.542-0.129,0.864-0.389
		c0.322-0.258,0.703-0.646,1.143-1.164l1.055,1.055c-0.908,0.977-1.729,1.67-2.461,2.08s-1.484,0.615-2.256,0.615
		c-0.967,0-1.719-0.229-2.256-0.688s-0.928-1.245-1.172-2.358l-0.776-3.516c-0.049-0.234-0.112-0.42-0.19-0.557
		s-0.181-0.234-0.308-0.293s-0.317-0.088-0.571-0.088h-0.366l-1.597,7.266h-4.204l3.706-16.553c0.215-0.957,0.322-1.655,0.322-2.095
		c0-0.215-0.022-0.383-0.066-0.505s-0.11-0.223-0.198-0.301s-0.205-0.139-0.352-0.184c-0.146-0.043-0.435-0.095-0.864-0.153
		l0.234-0.952l4.38-0.234h1.655L224.225,204.855z"/>
</g>
<g>
	<path d="M302.851,124.079l-0.22-0.073c-0.801,0.781-1.58,1.348-2.336,1.699c-0.758,0.352-1.561,0.527-2.41,0.527
		c-1.25,0-2.241-0.33-2.974-0.988c-0.732-0.66-1.099-1.541-1.099-2.645c0-1.436,0.705-2.565,2.117-3.391
		c1.41-0.825,3.552-1.346,6.423-1.561v-1.392c0-0.908-0.103-1.608-0.308-2.103c-0.205-0.492-0.469-0.839-0.791-1.039
		s-0.708-0.301-1.157-0.301s-0.837,0.078-1.165,0.234c-0.326,0.156-0.622,0.452-0.886,0.887s-0.459,1.037-0.586,1.809h-2.769v-2.666
		c1.123-0.498,2.072-0.871,2.85-1.121c0.775-0.248,1.498-0.432,2.168-0.549c0.668-0.117,1.311-0.176,1.926-0.176
		c1.182,0,2.127,0.156,2.834,0.469c0.709,0.313,1.238,0.82,1.59,1.523s0.527,1.675,0.527,2.915v5.713
		c0,0.83,0.024,1.419,0.073,1.765c0.049,0.348,0.124,0.599,0.228,0.755c0.102,0.156,0.234,0.278,0.395,0.366
		c0.162,0.088,0.457,0.186,0.887,0.293v0.967h-5.449L302.851,124.079z M302.367,119.084c-1.514,0.039-2.635,0.322-3.361,0.85
		c-0.729,0.527-1.092,1.299-1.092,2.314c0,0.605,0.166,1.067,0.498,1.385s0.791,0.476,1.377,0.476c0.449,0,0.874-0.119,1.274-0.358
		s0.718-0.56,0.952-0.96s0.352-0.825,0.352-1.274V119.084z"/>
</g>
<g>
	<path fill="#404040" d="M103.198,312.579l-0.22-0.073c-0.801,0.781-1.58,1.348-2.336,1.699s-1.56,0.527-2.41,0.527
		c-1.25,0-2.241-0.33-2.974-0.988c-0.732-0.66-1.099-1.541-1.099-2.645c0-1.436,0.706-2.565,2.117-3.391s3.552-1.346,6.423-1.561
		v-1.392c0-0.908-0.103-1.608-0.308-2.103c-0.205-0.492-0.469-0.839-0.791-1.039s-0.708-0.301-1.157-0.301s-0.837,0.078-1.165,0.234
		s-0.623,0.452-0.886,0.887s-0.459,1.037-0.586,1.809h-2.769v-2.666c1.123-0.498,2.073-0.871,2.849-1.121
		c0.776-0.248,1.499-0.432,2.168-0.549s1.311-0.176,1.926-0.176c1.182,0,2.126,0.156,2.834,0.469s1.238,0.82,1.589,1.523
		s0.527,1.675,0.527,2.915v5.713c0,0.83,0.024,1.419,0.073,1.765c0.049,0.348,0.125,0.599,0.227,0.755s0.234,0.278,0.396,0.366
		s0.457,0.186,0.886,0.293v0.967h-5.449L103.198,312.579z M102.714,307.584c-1.514,0.039-2.634,0.322-3.362,0.85
		s-1.091,1.299-1.091,2.314c0,0.605,0.166,1.067,0.498,1.385s0.791,0.476,1.377,0.476c0.449,0,0.874-0.119,1.274-0.358
		s0.718-0.56,0.952-0.96s0.352-0.825,0.352-1.274V307.584z"/>
	<path fill="#404040" d="M115.378,312.98c-0.122-0.643-0.249-1.262-0.378-1.855c-0.13-0.594-0.265-1.147-0.403-1.66
		c-0.139-0.513-0.252-0.849-0.342-1.007c-0.09-0.159-0.185-0.269-0.287-0.33c-0.102-0.061-0.23-0.091-0.384-0.091
		c-0.171,0-0.326,0.038-0.464,0.115c-0.139,0.078-0.289,0.212-0.452,0.403c-0.163,0.191-0.378,0.49-0.647,0.897l-0.793-0.525
		c0.513-0.773,1.005-1.351,1.477-1.733c0.472-0.383,1.029-0.573,1.672-0.573c0.252,0,0.474,0.028,0.665,0.085
		c0.191,0.057,0.36,0.145,0.507,0.263s0.276,0.271,0.391,0.457c0.114,0.188,0.224,0.442,0.33,0.764
		c0.105,0.321,0.206,0.72,0.299,1.196c0.093,0.476,0.177,0.97,0.25,1.483h0.122c0.781-1.1,1.373-1.902,1.776-2.411
		c0.402-0.509,0.742-0.887,1.019-1.136c0.276-0.248,0.543-0.423,0.799-0.524c0.257-0.102,0.596-0.153,1.02-0.153
		c0.382,0,0.696,0.049,0.94,0.146l-0.488,2.21h-0.854c-0.049-0.342-0.191-0.513-0.427-0.513c-0.073,0-0.151,0.012-0.232,0.037
		c-0.082,0.023-0.181,0.077-0.299,0.158c-0.118,0.081-0.291,0.24-0.519,0.477c-0.228,0.235-0.484,0.524-0.769,0.866
		c-0.285,0.342-0.578,0.7-0.879,1.074l-0.83,1.038c0.146,0.781,0.285,1.456,0.415,2.025c0.13,0.57,0.246,1.044,0.348,1.423
		c0.102,0.378,0.191,0.677,0.269,0.897c0.077,0.219,0.16,0.384,0.25,0.494c0.089,0.109,0.181,0.188,0.274,0.231
		c0.094,0.045,0.202,0.067,0.324,0.067c0.22,0,0.433-0.086,0.641-0.256c0.207-0.172,0.506-0.558,0.897-1.16l0.793,0.525
		c-0.57,0.846-1.084,1.442-1.544,1.788c-0.46,0.346-1.007,0.519-1.642,0.519c-0.35,0-0.647-0.063-0.891-0.189
		s-0.456-0.327-0.635-0.604c-0.179-0.277-0.338-0.709-0.476-1.295c-0.252-1.041-0.407-1.839-0.464-2.393h-0.122
		c-0.863,1.213-1.503,2.084-1.922,2.613c-0.419,0.528-0.765,0.919-1.038,1.172c-0.272,0.252-0.537,0.429-0.793,0.53
		c-0.257,0.102-0.597,0.153-1.02,0.153c-0.383,0-0.696-0.049-0.94-0.146l0.488-2.21h0.854c0.049,0.342,0.191,0.513,0.427,0.513
		c0.114,0,0.234-0.03,0.36-0.092c0.126-0.061,0.307-0.207,0.543-0.439c0.236-0.231,0.562-0.596,0.977-1.092
		C113.986,314.718,114.588,313.974,115.378,312.98z"/>
</g>
<g>
	<path fill="#404040" d="M295.855,468.579l-0.219-0.073c-0.801,0.781-1.58,1.348-2.337,1.699s-1.56,0.527-2.409,0.527
		c-1.25,0-2.242-0.33-2.975-0.988c-0.732-0.66-1.098-1.541-1.098-2.645c0-1.436,0.705-2.565,2.116-3.391s3.552-1.346,6.423-1.561
		v-1.392c0-0.908-0.102-1.608-0.307-2.103c-0.205-0.492-0.469-0.839-0.791-1.039s-0.709-0.301-1.158-0.301s-0.837,0.078-1.164,0.234
		s-0.623,0.452-0.887,0.887s-0.459,1.037-0.586,1.809h-2.768v-2.666c1.123-0.498,2.072-0.871,2.849-1.121
		c0.776-0.248,1.499-0.432,2.168-0.549s1.312-0.176,1.927-0.176c1.182,0,2.126,0.156,2.834,0.469s1.238,0.82,1.59,1.523
		s0.527,1.675,0.527,2.915v5.713c0,0.83,0.023,1.419,0.072,1.765c0.049,0.348,0.125,0.599,0.228,0.755s0.234,0.278,0.396,0.366
		s0.457,0.186,0.887,0.293v0.967h-5.449L295.855,468.579z M295.373,463.584c-1.514,0.039-2.635,0.322-3.362,0.85
		s-1.091,1.299-1.091,2.314c0,0.605,0.166,1.067,0.498,1.385s0.791,0.476,1.377,0.476c0.449,0,0.873-0.119,1.273-0.358
		s0.719-0.56,0.953-0.96s0.352-0.825,0.352-1.274V463.584z"/>
	<path fill="#404040" d="M308.183,474.522c-0.236-1.424-0.558-3.142-0.964-5.151c-0.432-2.148-0.717-3.479-0.855-3.992
		c-0.17-0.618-0.35-1.013-0.537-1.184c-0.113-0.105-0.256-0.158-0.427-0.158c-0.261,0-0.505,0.105-0.732,0.316
		c-0.228,0.212-0.509,0.578-0.843,1.1l-0.793-0.525c0.562-0.838,1.086-1.43,1.574-1.776c0.488-0.346,1.033-0.519,1.637-0.519
		c0.333,0,0.617,0.045,0.854,0.135c0.163,0.064,0.326,0.173,0.488,0.323c0.163,0.15,0.308,0.36,0.434,0.628
		c0.127,0.27,0.236,0.57,0.33,0.904c0.094,0.333,0.197,0.813,0.311,1.439c0.195,1.051,0.385,2.155,0.568,3.314
		c0.183,1.16,0.34,2.236,0.47,3.229c0.789-1.139,1.459-2.254,2.008-3.344c0.55-1.091,0.944-2.039,1.185-2.845
		s0.359-1.461,0.359-1.966c0-0.382-0.081-0.643-0.244-0.781c-0.162-0.138-0.439-0.219-0.83-0.244l0.123-0.598h3.21l0.329,0.61
		c-0.618,1.692-1.457,3.503-2.514,5.433c-1.043,1.888-2.234,3.768-3.577,5.639c-1.286,1.783-2.356,3.072-3.21,3.87
		c-0.595,0.545-1.168,0.936-1.722,1.172c-0.439,0.179-0.907,0.269-1.403,0.269c-0.172,0-0.369-0.015-0.593-0.043
		s-0.396-0.066-0.519-0.115l0.525-2.369h0.964c0,0.521,0.179,0.781,0.537,0.781c0.472,0,1.021-0.295,1.647-0.885
		S307.336,475.711,308.183,474.522z"/>
</g>
<g>
	<path fill="#404040" d="M375.309,141.079l-0.221-0.073c-0.801,0.781-1.579,1.348-2.336,1.699s-1.561,0.527-2.41,0.527
		c-1.25,0-2.24-0.33-2.973-0.988c-0.732-0.66-1.1-1.541-1.1-2.645c0-1.436,0.706-2.565,2.117-3.391s3.553-1.346,6.424-1.561v-1.392
		c0-0.908-0.104-1.608-0.309-2.103c-0.205-0.492-0.469-0.839-0.791-1.039s-0.707-0.301-1.156-0.301s-0.838,0.078-1.165,0.234
		s-0.622,0.452-0.886,0.887s-0.459,1.037-0.586,1.809h-2.77v-2.666c1.123-0.498,2.073-0.871,2.85-1.121
		c0.776-0.248,1.499-0.432,2.168-0.549s1.311-0.176,1.926-0.176c1.182,0,2.127,0.156,2.835,0.469s1.237,0.82,1.589,1.523
		s0.527,1.675,0.527,2.915v5.713c0,0.83,0.025,1.419,0.074,1.765c0.049,0.348,0.124,0.599,0.227,0.755s0.234,0.278,0.396,0.366
		s0.456,0.186,0.886,0.293v0.967h-5.449L375.309,141.079z M374.824,136.084c-1.514,0.039-2.634,0.322-3.361,0.85
		s-1.092,1.299-1.092,2.314c0,0.605,0.166,1.067,0.498,1.385s0.791,0.476,1.377,0.476c0.449,0,0.875-0.119,1.275-0.358
		s0.717-0.56,0.951-0.96s0.352-0.825,0.352-1.274V136.084z"/>
	<path fill="#404040" d="M391.785,143.568l-0.744,3.43h-8.838l-0.232-0.598l6.678-7.691c0.943-1.082,1.635-1.851,2.074-2.307
		l-0.072-0.086h-2.857c-0.423,0-0.732,0.029-0.928,0.086s-0.391,0.157-0.586,0.299c-0.195,0.143-0.404,0.354-0.628,0.635
		c-0.224,0.281-0.475,0.682-0.751,1.203h-1.086l0.72-3.211h8.679l0.232,0.61l-5.822,6.689c-1.132,1.294-2.112,2.393-2.942,3.296
		l0.073,0.086h2.759c0.488,0,0.862-0.026,1.123-0.08c0.261-0.053,0.488-0.152,0.684-0.299s0.396-0.368,0.604-0.665
		c0.207-0.297,0.465-0.763,0.775-1.397H391.785z"/>
</g>
<g>
	<path fill="#962828" d="M331.643,290.544c-0.527,2.432-1.39,4.206-2.586,5.325c-1.196,1.117-2.824,1.677-4.885,1.677
		c-0.459,0-0.924-0.063-1.393-0.19l0.396-1.597c0.273,0.078,0.596,0.117,0.967,0.117c0.439,0,0.798-0.062,1.076-0.183
		c0.278-0.123,0.529-0.333,0.754-0.631s0.436-0.734,0.631-1.311s0.41-1.387,0.645-2.432l2.373-10.547
		c0.225-0.996,0.336-1.729,0.336-2.197c0-0.381-0.09-0.652-0.271-0.813c-0.181-0.162-0.56-0.271-1.136-0.33l0.221-0.967l4.291-0.161
		h1.67L331.643,290.544z M335.773,270.622l-0.762,3.589h-3.795l0.807-3.589H335.773z"/>
</g>
<g>
	<path fill="#962828" d="M502.208,357.681c-0.283-1.709-0.669-3.77-1.157-6.182c-0.518-2.578-0.859-4.175-1.025-4.79
		c-0.205-0.742-0.42-1.216-0.645-1.421c-0.137-0.127-0.308-0.19-0.513-0.19c-0.313,0-0.605,0.127-0.879,0.381
		s-0.61,0.693-1.011,1.318l-0.952-0.63c0.674-1.006,1.304-1.716,1.89-2.131s1.24-0.623,1.963-0.623c0.4,0,0.742,0.054,1.025,0.161
		c0.195,0.078,0.391,0.208,0.586,0.388c0.195,0.182,0.369,0.433,0.521,0.755s0.283,0.684,0.396,1.084s0.236,0.977,0.373,1.729
		c0.234,1.26,0.462,2.585,0.682,3.978c0.22,1.391,0.407,2.683,0.563,3.874c0.947-1.367,1.751-2.705,2.41-4.014
		s1.133-2.446,1.421-3.413s0.432-1.753,0.432-2.358c0-0.459-0.098-0.771-0.293-0.938s-0.527-0.264-0.996-0.293l0.146-0.718h3.853
		l0.396,0.732c-0.742,2.031-1.748,4.204-3.018,6.519c-1.25,2.266-2.681,4.521-4.292,6.768c-1.543,2.139-2.827,3.687-3.853,4.644
		c-0.713,0.654-1.401,1.123-2.065,1.406c-0.527,0.215-1.089,0.322-1.685,0.322c-0.205,0-0.441-0.018-0.71-0.051
		c-0.269-0.035-0.477-0.081-0.623-0.14l0.63-2.842h1.157c0,0.625,0.215,0.938,0.645,0.938c0.566,0,1.226-0.354,1.978-1.062
		C500.309,360.173,501.192,359.106,502.208,357.681z"/>
</g>
<g>
	<path fill="#286E28" d="M229.854,20.882l-0.894,4.116h-10.605l-0.278-0.718l8.013-9.229c1.133-1.299,1.963-2.222,2.49-2.769
		l-0.088-0.103h-3.428c-0.508,0-0.879,0.034-1.113,0.103s-0.469,0.188-0.703,0.359s-0.486,0.424-0.754,0.762
		c-0.269,0.336-0.569,0.817-0.901,1.442h-1.304l0.864-3.853h10.415l0.278,0.732l-6.987,8.027c-1.357,1.553-2.534,2.871-3.53,3.955
		l0.088,0.103h3.311c0.586,0,1.035-0.031,1.348-0.095s0.586-0.184,0.82-0.359s0.476-0.441,0.725-0.799
		c0.249-0.355,0.559-0.915,0.93-1.677H229.854z"/>
</g>
</svg>
